<?xml version="1.0" encoding="UTF-8"?>
<svg id="Layer_1" data-name="Layer 1" xmlns="http://www.w3.org/2000/svg" viewBox="0 0 1000 327.77">
  <defs>
    <style>
      .cls-1 {
        fill: #f05f42;
      }

      .cls-2 {
        fill: #fff;
      }

      .cls-3 {
        fill: #822de5;
      }

      .cls-4 {
        fill: #b932cc;
      }

      .cls-5 {
        fill: #cb2f90;
      }

      .cls-6 {
        fill: #e12353;
      }

      .cls-7 {
        fill: none;
        stroke: #fff;
        stroke-miterlimit: 10;
        stroke-width: 4px;
      }
    </style>
  </defs>
  <g id="Logo_Dark" data-name="Logo Dark">
    <rect y=".5" width="1000" height="327.77"/>
    <g>
      <line class="cls-7" x1="125.25" y1="77.85" x2="125.25" y2="233.37"/>
      <line class="cls-7" x1="413.42" y1="77.85" x2="413.42" y2="156.11"/>
      <line class="cls-7" x1="485.46" y1="77.85" x2="485.46" y2="156.11"/>
      <line class="cls-7" x1="557.5" y1="155.61" x2="557.5" y2="233.37"/>
      <line class="cls-7" x1="629.55" y1="155.61" x2="629.55" y2="233.37"/>
      <line class="cls-7" x1="701.59" y1="155.61" x2="701.59" y2="233.37"/>
      <line class="cls-7" x1="773.63" y1="155.61" x2="773.63" y2="233.37"/>
      <polyline class="cls-7" points="269.33 233.37 88.73 233.37 88.73 271.53 809.96 271.53 809.97 233.37 557.5 233.37"/>
      <polyline class="cls-7" points="341.38 156.11 341.38 77.85 485.46 77.85 125.25 77.85 197.29 77.85 197.29 233.37 269.33 233.37 269.33 77.85"/>
    </g>
    <g>
      <rect class="cls-6" x="94.92" y="113.43" width="60.66" height="85.36"/>
      <circle class="cls-4" cx="125.07" cy="77.85" r="25.22"/>
      <circle class="cls-3" cx="125.25" cy="233.37" r="25.22"/>
      <rect class="cls-1" x="166.96" y="113.43" width="60.66" height="85.36"/>
      <circle class="cls-4" cx="197.11" cy="77.85" r="25.22"/>
      <circle class="cls-3" cx="197.29" cy="233.37" r="25.22"/>
      <rect class="cls-6" x="239" y="113.43" width="60.66" height="85.36"/>
      <circle class="cls-4" cx="269.15" cy="77.85" r="25.22"/>
      <circle class="cls-3" cx="269.33" cy="233.37" r="25.22"/>
      <rect class="cls-1" x="311.04" y="113.43" width="60.66" height="85.36"/>
      <circle class="cls-4" cx="341.19" cy="77.85" r="25.22"/>
      <rect class="cls-6" x="383.09" y="113.43" width="60.66" height="85.36"/>
      <circle class="cls-4" cx="413.24" cy="77.85" r="25.22"/>
      <rect class="cls-1" x="455.13" y="113.43" width="60.66" height="85.36"/>
      <circle class="cls-4" cx="485.28" cy="77.85" r="25.22"/>
      <rect class="cls-6" x="527.17" y="113.43" width="60.66" height="85.36"/>
      <circle class="cls-3" cx="557.5" cy="233.37" r="25.22"/>
      <rect class="cls-1" x="599.22" y="113.43" width="60.66" height="85.36"/>
      <circle class="cls-3" cx="629.55" cy="233.37" r="25.22"/>
      <rect class="cls-6" x="671.26" y="113.43" width="60.66" height="85.36"/>
      <circle class="cls-3" cx="701.59" cy="233.37" r="25.22"/>
      <rect class="cls-1" x="743.3" y="113.43" width="60.66" height="85.36"/>
      <circle class="cls-3" cx="773.63" cy="233.37" r="25.22"/>
      <rect class="cls-5" x="815.35" y="113.43" width="60.66" height="85.36"/>
      <rect class="cls-5" x="887.39" y="113.43" width="60.66" height="85.36"/>
    </g>
    <g>
      <path class="cls-2" d="m127.31,145.5v27.33h-4.13v-27.33h-10.31v-3.75h24.75v3.75h-10.31Z"/>
      <path class="cls-2" d="m191.59,161.51c0,3.12.53,5.33,1.59,6.66,1.06,1.33,2.77,1.99,5.12,1.99,1.05,0,1.97-.22,2.76-.66.79-.44,1.56-1.16,2.29-2.15l3.19,1.98c-.9,1.35-1.99,2.38-3.28,3.11-1.29.73-3.03,1.09-5.23,1.09-3.5,0-6.12-1.02-7.85-3.05-1.73-2.04-2.59-5.11-2.59-9.23s.84-7.5,2.53-9.56,4.23-3.09,7.63-3.09c3.05,0,5.35.88,6.87,2.64s2.29,4.47,2.29,8.12v2.16h-15.32Zm11.54-3.03c-.03-2.11-.48-3.75-1.34-4.92-.86-1.17-2.26-1.75-4.19-1.75s-3.22.53-4.14,1.58-1.53,2.75-1.83,5.09h11.5Z"/>
      <path class="cls-2" d="m274.71,172.83v-13.88c0-2.25-.11-3.74-.34-4.49-.22-.75-.59-1.29-1.1-1.63-.51-.34-1.25-.51-2.22-.51s-2.14.38-3.46,1.12c-1.32.75-2.59,1.66-3.82,2.74v16.64h-3.86v-23.56h3.86v3.5c1.09-1.09,2.37-2.06,3.82-2.91,1.45-.85,2.91-1.27,4.38-1.27,2.28,0,3.95.65,5.01,1.94,1.06,1.29,1.59,3.49,1.59,6.57v15.72h-3.86Z"/>
      <path class="cls-2" d="m350.17,166.48c0,2.2-.78,3.93-2.34,5.18-1.56,1.25-3.77,1.88-6.65,1.88-1.96,0-3.72-.37-5.28-1.11-1.56-.74-2.7-1.79-3.41-3.13l3.1-1.89c1.18,1.9,3.08,2.85,5.71,2.85,1.71,0,2.98-.33,3.83-.98.85-.65,1.27-1.53,1.27-2.64,0-.66-.15-1.19-.45-1.61-.3-.41-.76-.77-1.39-1.08s-1.92-.72-3.86-1.25c-2.8-.64-4.77-1.53-5.92-2.67-1.15-1.14-1.72-2.65-1.72-4.54,0-2.08.75-3.75,2.25-5.01,1.5-1.26,3.57-1.89,6.22-1.89,2.05,0,3.77.4,5.17,1.21s2.41,1.78,3.05,2.92l-3.08,1.89c-1.23-1.84-2.97-2.76-5.23-2.76-1.29,0-2.38.29-3.27.85-.89.57-1.34,1.45-1.34,2.65,0,1.06.39,1.83,1.17,2.31.78.48,2,.92,3.66,1.33,2.67.69,4.51,1.33,5.53,1.93,1.02.6,1.77,1.34,2.26,2.21.49.88.73,1.99.73,3.33Z"/>
      <path class="cls-2" d="m423.6,161.11c0,4.09-.88,7.18-2.64,9.28-1.76,2.1-4.32,3.14-7.69,3.14s-5.94-1.04-7.73-3.11c-1.78-2.07-2.67-5.18-2.67-9.31s.89-7.34,2.68-9.41c1.79-2.07,4.36-3.1,7.72-3.1s5.95,1.05,7.7,3.16,2.63,5.22,2.63,9.35Zm-4,0c0-3.2-.53-5.53-1.58-6.99-1.06-1.45-2.64-2.18-4.75-2.18s-3.78.73-4.83,2.19c-1.05,1.46-1.57,3.78-1.57,6.97s.51,5.35,1.52,6.83,2.64,2.22,4.89,2.22,3.73-.73,4.77-2.2c1.04-1.47,1.56-3.75,1.56-6.85Z"/>
      <path class="cls-2" d="m492.91,153.09c-.42-.18-1.02-.27-1.8-.27-1.15,0-2.27.27-3.34.8-1.07.53-2.32,1.51-3.74,2.93v16.28h-3.86v-23.56h3.86v3.82c1.08-1.09,2.21-2.06,3.4-2.91s2.51-1.27,3.96-1.27c.97,0,1.75.16,2.34.47l-.83,3.71Z"/>
      <path class="cls-2" d="m565.21,172.83l-10.71-13.79-2.94,3.3v10.49h-4.16v-31.09h4.16v15.25l13.14-15.25h5.17l-12.71,14.29,13.34,16.8h-5.28Z"/>
      <path class="cls-2" d="m636.99,153.09c-.42-.18-1.02-.27-1.8-.27-1.15,0-2.26.27-3.33.8-1.07.53-2.32,1.51-3.74,2.93v16.28h-3.86v-23.56h3.86v3.82c1.08-1.09,2.21-2.06,3.4-2.91s2.51-1.27,3.96-1.27c.97,0,1.75.16,2.34.47l-.83,3.71Z"/>
      <path class="cls-2" d="m711.96,161.11c0,4.09-.88,7.18-2.64,9.28-1.76,2.1-4.32,3.14-7.69,3.14s-5.94-1.04-7.73-3.11-2.67-5.18-2.67-9.31.89-7.34,2.68-9.41c1.79-2.07,4.36-3.1,7.71-3.1s5.95,1.05,7.7,3.16,2.63,5.22,2.63,9.35Zm-4,0c0-3.2-.53-5.53-1.58-6.99-1.06-1.45-2.64-2.18-4.75-2.18s-3.78.73-4.83,2.19-1.57,3.78-1.57,6.97.51,5.35,1.52,6.83,2.64,2.22,4.88,2.22,3.73-.73,4.77-2.2c1.04-1.47,1.56-3.75,1.56-6.85Z"/>
      <path class="cls-2" d="m782.97,172.83h-3.59l-5.75-18.04-5.75,18.04h-3.53l-5.86-23.56h4.02l4,17.95,5.62-17.95h3.21l5.75,17.95,3.82-17.95h3.86l-5.79,23.56Z"/>
      <path class="cls-2" d="m855.63,169.19c-.73,1.26-1.75,2.29-3.05,3.11-1.3.82-3.1,1.22-5.39,1.22-3.46,0-6.06-1.04-7.82-3.13s-2.63-5.18-2.63-9.29.87-7.21,2.61-9.33c1.74-2.12,4.3-3.18,7.68-3.18,3.88,0,6.64,1.44,8.29,4.31l-3.17,1.93c-.58-.91-1.27-1.62-2.06-2.13-.79-.51-1.82-.76-3.11-.76-2.26,0-3.87.82-4.82,2.46s-1.43,3.9-1.43,6.79c0,2.2.22,3.92.67,5.14.45,1.23,1.15,2.17,2.1,2.83.95.66,2.16.99,3.63.99,1.26,0,2.28-.24,3.08-.71.79-.47,1.54-1.2,2.25-2.19l3.17,1.93Z"/>
      <path class="cls-2" d="m923.28,172.83v-13.88c0-2.25-.11-3.74-.33-4.48-.22-.74-.58-1.28-1.09-1.63-.51-.34-1.26-.52-2.25-.52s-2.14.38-3.46,1.12c-1.32.75-2.59,1.66-3.82,2.74v16.64h-3.86v-33.44h3.86v13.39c1.09-1.09,2.37-2.06,3.82-2.91s2.91-1.27,4.38-1.27c2.28,0,3.95.65,5.01,1.94s1.59,3.49,1.59,6.57v15.72h-3.86Z"/>
    </g>
  </g>
</svg>