<?xml version="1.0" standalone="no"?>
<!DOCTYPE svg PUBLIC "-//W3C//DTD SVG 20010904//EN"
 "http://www.w3.org/TR/2001/REC-SVG-20010904/DTD/svg10.dtd">
<svg version="1.0" xmlns="http://www.w3.org/2000/svg"
 width="180.000000pt" height="180.000000pt" viewBox="0 0 180.000000 180.000000"
 preserveAspectRatio="xMidYMid meet">

<g transform="translate(0.000000,180.000000) scale(0.100000,-0.100000)"
fill="#000000" stroke="none">
<path d="M255 1661 c-74 -34 -105 -85 -105 -172 0 -80 49 -147 126 -174 36
-12 39 -16 42 -54 l3 -41 -95 0 -96 0 0 -320 0 -320 95 0 95 0 0 -39 c0 -37
-3 -40 -37 -51 -88 -28 -133 -90 -133 -180 0 -122 94 -204 215 -186 62 10 131
71 147 130 l11 41 83 -3 83 -3 11 -35 c25 -74 105 -134 180 -134 76 0 155 60
180 135 l12 35 83 0 83 0 7 -31 c9 -39 70 -108 112 -126 89 -37 209 12 242
100 17 45 13 124 -9 167 -22 43 -58 72 -112 89 -35 12 -38 15 -38 52 l0 39
115 0 115 0 0 320 0 320 -115 0 -115 0 0 40 c0 30 5 42 18 46 100 30 155 97
154 189 0 61 -19 102 -61 138 -112 94 -276 36 -310 -111 -5 -20 -9 -31 -10
-23 -1 10 -17 12 -78 6 l-78 -7 -18 51 c-32 93 -119 143 -218 126 -55 -9 -123
-74 -138 -132 l-11 -42 -84 -3 -84 -3 -6 34 c-18 114 -152 182 -261 132z m990
-208 c16 -67 96 -143 150 -143 11 0 15 -11 15 -45 l0 -45 -105 0 -105 0 0
-320 0 -320 106 0 105 0 -3 -41 c-3 -38 -6 -42 -41 -54 -22 -7 -50 -24 -64
-37 -28 -26 -63 -89 -63 -113 0 -12 -15 -15 -83 -15 l-82 0 -18 49 c-19 55
-73 109 -118 118 -35 7 -35 7 -44 56 l-7 37 106 0 106 0 0 315 0 314 -102 3
-103 3 -3 43 c-3 34 1 43 15 48 85 27 131 66 148 124 13 45 23 50 105 50 77 0
78 0 85 -27z m-534 -33 c23 -53 59 -85 118 -106 34 -11 36 -15 36 -56 l0 -43
-102 -3 -103 -3 0 -314 0 -315 105 0 105 0 0 -40 c0 -37 -2 -40 -42 -52 -55
-16 -113 -72 -128 -125 l-13 -43 -81 0 -81 0 -17 48 c-20 57 -61 99 -114 117
-36 12 -39 16 -42 54 l-3 41 105 0 106 0 0 320 0 320 -105 0 -105 0 0 44 c0
42 2 44 33 50 47 9 103 59 123 111 l17 45 83 0 83 0 22 -50z"/>
</g>
</svg>
