<?xml version="1.0" standalone="no"?>
<!DOCTYPE svg PUBLIC "-//W3C//DTD SVG 20010904//EN"
 "http://www.w3.org/TR/2001/REC-SVG-20010904/DTD/svg10.dtd">
<svg version="1.0" xmlns="http://www.w3.org/2000/svg"
 width="1360.000000pt" height="375.000000pt" viewBox="0 0 1360.000000 375.000000"
 preserveAspectRatio="xMidYMid meet">

<g transform="translate(0.000000,375.000000) scale(0.100000,-0.100000)"
fill="#000000" stroke="none">
<path d="M754 3569 c-181 -24 -324 -189 -324 -374 0 -107 60 -231 142 -296 46
-37 141 -78 181 -79 l27 0 0 -85 0 -85 -215 0 -215 0 0 -645 0 -645 215 0 215
0 0 -80 c0 -79 0 -80 -27 -86 -104 -23 -162 -54 -222 -119 -46 -50 -85 -127
-96 -187 l-7 -38 -124 0 -124 0 0 -307 0 -308 1468 -3 c807 -2 2837 -7 4512
-12 1675 -5 3507 -10 4073 -10 l1027 0 0 320 0 320 -94 0 -94 0 -7 38 c-11 60
-50 137 -96 187 -60 65 -118 96 -221 119 -28 6 -28 7 -28 86 l0 80 210 0 210
0 0 640 0 640 -455 0 -455 0 0 -640 0 -640 215 0 215 0 0 -80 c0 -79 0 -80
-27 -86 -104 -23 -162 -54 -222 -119 -48 -52 -88 -130 -96 -190 l-6 -40 -169
3 -168 3 -7 37 c-11 60 -50 137 -96 187 -60 65 -118 96 -221 119 -28 6 -28 7
-28 86 l0 80 215 0 215 0 -2 643 -3 642 -457 3 -458 2 0 -645 0 -645 215 0
215 0 0 -80 c0 -79 0 -80 -27 -86 -104 -23 -162 -54 -222 -119 -46 -50 -85
-127 -96 -187 l-7 -38 -168 0 -168 0 -7 38 c-11 60 -50 137 -96 187 -60 65
-118 96 -221 119 -28 6 -28 7 -28 86 l0 80 210 0 210 0 0 640 0 640 -455 0
-455 0 0 -640 0 -640 215 0 215 0 0 -80 c0 -79 0 -80 -27 -86 -104 -23 -162
-54 -222 -119 -46 -50 -85 -127 -96 -187 l-7 -38 -168 0 -168 0 -7 38 c-11 60
-50 137 -96 187 -60 65 -118 96 -221 119 -28 6 -28 7 -28 86 l0 80 215 0 215
0 -2 643 -3 642 -457 3 -458 2 0 -645 0 -645 215 0 215 0 0 -80 c0 -79 0 -80
-27 -86 -142 -31 -235 -102 -291 -222 -23 -49 -27 -70 -27 -152 0 -86 3 -101
31 -160 117 -245 429 -297 619 -103 43 43 90 136 100 194 l7 39 168 0 168 0 7
-39 c3 -21 19 -65 34 -97 136 -286 546 -286 682 0 15 32 31 76 34 97 l7 39
168 0 168 0 7 -39 c3 -21 19 -65 34 -97 137 -286 545 -286 682 0 15 32 31 76
34 97 l7 39 168 0 168 0 7 -39 c3 -21 19 -65 34 -97 136 -286 546 -286 682 0
15 32 31 76 34 97 l7 39 64 0 64 0 0 -260 0 -260 -1122 1 c-1005 0 -9829 26
-9835 28 -2 1 -3 111 -3 246 l0 245 94 0 94 0 7 -39 c3 -21 19 -65 34 -97 136
-286 546 -286 682 0 15 32 31 76 34 97 l7 39 168 0 168 0 7 -39 c3 -21 19 -65
34 -97 137 -286 545 -286 682 0 15 32 31 76 34 97 l7 39 163 0 c121 0 165 3
168 13 3 6 6 -1 6 -18 3 -94 71 -213 159 -275 148 -107 362 -89 490 41 131
132 146 342 37 491 -58 79 -137 128 -247 152 -28 6 -28 7 -28 86 l0 80 215 0
215 0 -2 642 -3 643 -212 3 -213 2 0 85 0 85 28 0 c39 1 134 42 180 79 51 40
106 122 125 186 l14 50 173 0 173 0 14 -50 c19 -64 74 -146 125 -186 46 -37
141 -78 181 -79 l27 0 0 -90 0 -90 -215 0 -215 0 0 -640 0 -640 455 0 455 0 0
640 0 640 -210 0 -210 0 0 90 0 90 28 0 c39 1 134 42 180 79 51 40 106 122
125 186 l14 50 173 0 173 0 14 -50 c19 -64 74 -146 125 -186 46 -37 141 -78
181 -79 l27 0 0 -85 0 -85 -220 0 -220 0 0 -645 0 -645 455 0 455 0 0 645 0
645 -205 0 -205 0 0 85 0 85 28 0 c39 1 134 42 180 79 51 40 106 122 125 186
l14 50 173 0 173 0 14 -50 c19 -64 74 -146 125 -186 46 -37 141 -78 181 -79
l27 0 0 -90 0 -90 -225 0 -225 0 0 -640 0 -640 455 0 455 0 0 640 0 640 -200
0 -200 0 0 90 0 90 28 0 c15 0 53 11 84 24 181 74 277 272 222 457 -91 305
-502 371 -677 107 -35 -53 -67 -141 -67 -185 l0 -23 -168 0 -167 0 -12 59
c-39 205 -222 338 -428 310 -159 -21 -287 -146 -318 -310 l-12 -59 -165 0
-165 0 -12 59 c-31 164 -159 289 -318 310 -206 28 -389 -105 -428 -310 l-12
-59 -165 0 -165 0 -12 59 c-39 205 -222 338 -428 310 -159 -21 -287 -146 -318
-310 l-12 -59 -165 0 -165 0 -12 59 c-39 205 -222 338 -428 310 -159 -21 -287
-146 -318 -310 l-12 -59 -167 0 -168 0 0 23 c0 44 -32 132 -67 185 -80 120
-220 181 -369 161z m793 -484 c19 -64 74 -146 125 -186 46 -37 141 -78 181
-79 l27 0 0 -90 0 -90 -215 0 -215 0 0 -640 0 -640 215 0 215 0 0 -80 c0 -79
0 -80 -27 -86 -104 -23 -162 -54 -222 -119 -46 -50 -85 -127 -96 -187 l-7 -37
-168 -3 -169 -3 -6 40 c-8 60 -48 138 -96 190 -60 65 -118 96 -221 119 -28 6
-28 7 -28 86 l0 80 215 0 215 0 -2 643 -3 642 -212 3 -213 2 0 85 0 85 28 0
c39 1 134 42 180 79 47 37 104 120 121 176 7 22 14 46 17 53 3 10 43 12 175
10 l172 -3 14 -50z m1100 0 c19 -64 74 -146 125 -186 46 -37 141 -78 181 -79
l27 0 0 -85 0 -85 -215 0 -215 0 0 -645 0 -645 215 0 215 0 0 -79 c0 -87 4
-82 -70 -96 -134 -27 -258 -168 -280 -318 -4 -29 -8 -44 -9 -34 -1 15 -16 17
-165 17 l-164 0 -7 37 c-11 61 -50 138 -96 188 -60 65 -118 96 -221 119 -28 6
-28 7 -28 86 l0 80 210 0 210 0 0 640 0 640 -210 0 -210 0 0 90 0 90 28 0 c39
1 134 42 180 79 47 37 104 120 121 176 7 22 14 46 17 53 3 10 43 12 175 10
l172 -3 14 -50z"/>
<path d="M11330 2004 l0 -644 460 0 460 0 -2 643 -3 642 -457 2 -458 1 0 -644z"/>
<path d="M12430 2004 l0 -644 460 0 460 0 -2 643 -3 642 -457 2 -458 2 0 -645z"/>
</g>
</svg>
